<mxfile host="app.diagrams.net" agent="Mozilla/5.0 (X11; Linux x86_64) AppleWebKit/537.36 (KHTML, like Gecko) Chrome/136.0.0.0 Safari/537.36" version="26.3.0">
  <diagram name="Pàgina-1" id="mhbHxmUa4zc_a_H4eHv1">
    <mxGraphModel dx="2066" dy="1119" grid="1" gridSize="10" guides="1" tooltips="1" connect="1" arrows="1" fold="1" page="1" pageScale="1" pageWidth="827" pageHeight="1169" math="0" shadow="0">
      <root>
        <mxCell id="0" />
        <mxCell id="1" parent="0" />
        <mxCell id="fIYOGUx-Yhvfgm9_j7Pw-4" value="" style="group" vertex="1" connectable="0" parent="1">
          <mxGeometry x="120" y="575" width="670" height="435" as="geometry" />
        </mxCell>
        <mxCell id="gj7dvYsNSeR0b3cTl4Mi-1" value="&lt;i style=&quot;font-size: 16px;&quot;&gt;&lt;font style=&quot;font-size: 12px;&quot;&gt;Merge commit&lt;/font&gt;&lt;/i&gt;" style="ellipse;whiteSpace=wrap;html=1;fillColor=#f5f5f5;fontColor=#333333;strokeColor=#666666;" parent="fIYOGUx-Yhvfgm9_j7Pw-4" vertex="1">
          <mxGeometry x="130" y="140" width="60" height="60" as="geometry" />
        </mxCell>
        <mxCell id="gj7dvYsNSeR0b3cTl4Mi-2" style="rounded=0;orthogonalLoop=1;jettySize=auto;html=1;" parent="fIYOGUx-Yhvfgm9_j7Pw-4" source="gj7dvYsNSeR0b3cTl4Mi-3" target="gj7dvYsNSeR0b3cTl4Mi-1" edge="1">
          <mxGeometry relative="1" as="geometry" />
        </mxCell>
        <mxCell id="gj7dvYsNSeR0b3cTl4Mi-3" value="&lt;i style=&quot;font-size: 16px;&quot;&gt;&lt;font style=&quot;font-size: 12px;&quot;&gt;Beguda desdejuni&lt;/font&gt;&lt;/i&gt;" style="ellipse;whiteSpace=wrap;html=1;fillColor=#f5f5f5;fontColor=#333333;strokeColor=#666666;" parent="fIYOGUx-Yhvfgm9_j7Pw-4" vertex="1">
          <mxGeometry x="370" y="140" width="60" height="60" as="geometry" />
        </mxCell>
        <mxCell id="gj7dvYsNSeR0b3cTl4Mi-4" style="rounded=0;orthogonalLoop=1;jettySize=auto;html=1;exitX=0.5;exitY=1;exitDx=0;exitDy=0;fillColor=#dae8fc;strokeColor=#6c8ebf;" parent="fIYOGUx-Yhvfgm9_j7Pw-4" source="gj7dvYsNSeR0b3cTl4Mi-5" target="gj7dvYsNSeR0b3cTl4Mi-3" edge="1">
          <mxGeometry relative="1" as="geometry">
            <mxPoint x="359" y="160" as="targetPoint" />
          </mxGeometry>
        </mxCell>
        <mxCell id="gj7dvYsNSeR0b3cTl4Mi-5" value="desdejuni" style="ellipse;whiteSpace=wrap;html=1;fillColor=#dae8fc;strokeColor=#6c8ebf;fontSize=16;fontStyle=1" parent="fIYOGUx-Yhvfgm9_j7Pw-4" vertex="1">
          <mxGeometry x="280" y="75" width="100" height="40" as="geometry" />
        </mxCell>
        <mxCell id="gj7dvYsNSeR0b3cTl4Mi-6" value="&lt;i style=&quot;font-size: 16px;&quot;&gt;&lt;font style=&quot;font-size: 12px;&quot;&gt;Menjar paella&lt;/font&gt;&lt;/i&gt;" style="ellipse;whiteSpace=wrap;html=1;fillColor=#f5f5f5;fontColor=#333333;strokeColor=#666666;opacity=50;dashed=1;textOpacity=50;" parent="fIYOGUx-Yhvfgm9_j7Pw-4" vertex="1">
          <mxGeometry x="370" y="375" width="60" height="60" as="geometry" />
        </mxCell>
        <mxCell id="gj7dvYsNSeR0b3cTl4Mi-7" style="rounded=0;orthogonalLoop=1;jettySize=auto;html=1;exitX=0.5;exitY=1;exitDx=0;exitDy=0;fillColor=#dae8fc;strokeColor=#6c8ebf;opacity=50;dashed=1;textOpacity=50;" parent="fIYOGUx-Yhvfgm9_j7Pw-4" source="gj7dvYsNSeR0b3cTl4Mi-8" target="gj7dvYsNSeR0b3cTl4Mi-6" edge="1">
          <mxGeometry relative="1" as="geometry">
            <mxPoint x="319" y="380" as="targetPoint" />
          </mxGeometry>
        </mxCell>
        <mxCell id="gj7dvYsNSeR0b3cTl4Mi-8" value="paella" style="ellipse;whiteSpace=wrap;html=1;fillColor=#dae8fc;strokeColor=#6c8ebf;fontSize=16;fontStyle=1;opacity=50;dashed=1;textOpacity=50;" parent="fIYOGUx-Yhvfgm9_j7Pw-4" vertex="1">
          <mxGeometry x="350" y="305" width="100" height="40" as="geometry" />
        </mxCell>
        <mxCell id="gj7dvYsNSeR0b3cTl4Mi-9" style="rounded=0;orthogonalLoop=1;jettySize=auto;html=1;opacity=50;dashed=1;textOpacity=50;" parent="fIYOGUx-Yhvfgm9_j7Pw-4" source="gj7dvYsNSeR0b3cTl4Mi-6" target="gj7dvYsNSeR0b3cTl4Mi-1" edge="1">
          <mxGeometry relative="1" as="geometry">
            <mxPoint x="405" y="118.5" as="sourcePoint" />
            <mxPoint x="257" y="261.5" as="targetPoint" />
          </mxGeometry>
        </mxCell>
        <mxCell id="gj7dvYsNSeR0b3cTl4Mi-10" value="&lt;font color=&quot;#0066cc&quot; style=&quot;font-size: 14px;&quot;&gt;&lt;b&gt;Ancestre comú&lt;/b&gt;&lt;/font&gt;" style="text;html=1;strokeColor=none;fillColor=none;align=center;verticalAlign=middle;whiteSpace=wrap;rounded=0;fontStyle=2" parent="fIYOGUx-Yhvfgm9_j7Pw-4" vertex="1">
          <mxGeometry x="130" y="215" width="60" height="30" as="geometry" />
        </mxCell>
        <mxCell id="gj7dvYsNSeR0b3cTl4Mi-11" style="rounded=0;orthogonalLoop=1;jettySize=auto;html=1;exitX=0.5;exitY=1;exitDx=0;exitDy=0;fillColor=#d5e8d4;strokeColor=#82b366;" parent="fIYOGUx-Yhvfgm9_j7Pw-4" source="gj7dvYsNSeR0b3cTl4Mi-12" target="gj7dvYsNSeR0b3cTl4Mi-3" edge="1">
          <mxGeometry relative="1" as="geometry">
            <mxPoint x="635" y="140" as="targetPoint" />
          </mxGeometry>
        </mxCell>
        <mxCell id="gj7dvYsNSeR0b3cTl4Mi-12" value="main" style="ellipse;whiteSpace=wrap;html=1;fillColor=#d5e8d4;strokeColor=#82b366;fontSize=16;fontStyle=1" parent="fIYOGUx-Yhvfgm9_j7Pw-4" vertex="1">
          <mxGeometry x="420" y="75" width="100" height="40" as="geometry" />
        </mxCell>
        <mxCell id="gj7dvYsNSeR0b3cTl4Mi-13" style="edgeStyle=orthogonalEdgeStyle;rounded=0;orthogonalLoop=1;jettySize=auto;html=1;exitX=0.5;exitY=1;exitDx=0;exitDy=0;fillColor=#f5f5f5;strokeColor=#666666;" parent="fIYOGUx-Yhvfgm9_j7Pw-4" source="gj7dvYsNSeR0b3cTl4Mi-14" edge="1">
          <mxGeometry relative="1" as="geometry">
            <mxPoint x="620" y="70" as="targetPoint" />
          </mxGeometry>
        </mxCell>
        <mxCell id="gj7dvYsNSeR0b3cTl4Mi-14" value="HEAD" style="ellipse;whiteSpace=wrap;html=1;fillColor=#f5f5f5;strokeColor=#666666;fontSize=16;fontStyle=1;fontColor=#333333;" parent="fIYOGUx-Yhvfgm9_j7Pw-4" vertex="1">
          <mxGeometry x="570" width="100" height="40" as="geometry" />
        </mxCell>
        <mxCell id="gj7dvYsNSeR0b3cTl4Mi-15" value="&lt;i style=&quot;font-size: 16px;&quot;&gt;&lt;font style=&quot;font-size: 12px;&quot;&gt;...&lt;/font&gt;&lt;/i&gt;" style="ellipse;whiteSpace=wrap;html=1;fillColor=#f5f5f5;fontColor=#333333;strokeColor=#666666;" parent="fIYOGUx-Yhvfgm9_j7Pw-4" vertex="1">
          <mxGeometry y="140" width="60" height="60" as="geometry" />
        </mxCell>
        <mxCell id="gj7dvYsNSeR0b3cTl4Mi-16" style="rounded=0;orthogonalLoop=1;jettySize=auto;html=1;" parent="fIYOGUx-Yhvfgm9_j7Pw-4" source="gj7dvYsNSeR0b3cTl4Mi-1" target="gj7dvYsNSeR0b3cTl4Mi-15" edge="1">
          <mxGeometry relative="1" as="geometry">
            <mxPoint x="380" y="180" as="sourcePoint" />
            <mxPoint x="200" y="180" as="targetPoint" />
          </mxGeometry>
        </mxCell>
        <mxCell id="gj7dvYsNSeR0b3cTl4Mi-17" value="&lt;i style=&quot;font-size: 16px;&quot;&gt;&lt;font style=&quot;font-size: 12px;&quot;&gt;Menjar paella&lt;/font&gt;&lt;/i&gt;" style="ellipse;whiteSpace=wrap;html=1;fillColor=#f5f5f5;fontColor=#333333;strokeColor=#666666;" parent="fIYOGUx-Yhvfgm9_j7Pw-4" vertex="1">
          <mxGeometry x="590" y="140" width="60" height="60" as="geometry" />
        </mxCell>
        <mxCell id="gj7dvYsNSeR0b3cTl4Mi-18" style="rounded=0;orthogonalLoop=1;jettySize=auto;html=1;exitX=0.5;exitY=1;exitDx=0;exitDy=0;fillColor=#dae8fc;strokeColor=#6c8ebf;" parent="fIYOGUx-Yhvfgm9_j7Pw-4" source="gj7dvYsNSeR0b3cTl4Mi-19" target="gj7dvYsNSeR0b3cTl4Mi-17" edge="1">
          <mxGeometry relative="1" as="geometry">
            <mxPoint x="539" y="145" as="targetPoint" />
          </mxGeometry>
        </mxCell>
        <mxCell id="gj7dvYsNSeR0b3cTl4Mi-19" value="paella" style="ellipse;whiteSpace=wrap;html=1;fillColor=#dae8fc;strokeColor=#6c8ebf;fontSize=16;fontStyle=1" parent="fIYOGUx-Yhvfgm9_j7Pw-4" vertex="1">
          <mxGeometry x="570" y="70" width="100" height="40" as="geometry" />
        </mxCell>
        <mxCell id="gj7dvYsNSeR0b3cTl4Mi-20" style="rounded=0;orthogonalLoop=1;jettySize=auto;html=1;" parent="fIYOGUx-Yhvfgm9_j7Pw-4" source="gj7dvYsNSeR0b3cTl4Mi-17" target="gj7dvYsNSeR0b3cTl4Mi-3" edge="1">
          <mxGeometry relative="1" as="geometry">
            <mxPoint x="610" y="-41.5" as="sourcePoint" />
            <mxPoint x="390" y="27" as="targetPoint" />
          </mxGeometry>
        </mxCell>
        <mxCell id="gj7dvYsNSeR0b3cTl4Mi-22" value="" style="curved=1;endArrow=classic;html=1;rounded=0;strokeWidth=3;fillColor=#dae8fc;strokeColor=#0066CC;" parent="fIYOGUx-Yhvfgm9_j7Pw-4" edge="1">
          <mxGeometry width="50" height="50" relative="1" as="geometry">
            <mxPoint x="510" y="400" as="sourcePoint" />
            <mxPoint x="620" y="225" as="targetPoint" />
            <Array as="points">
              <mxPoint x="410" y="400" />
              <mxPoint x="510" y="400" />
              <mxPoint x="630" y="400" />
            </Array>
          </mxGeometry>
        </mxCell>
        <mxCell id="gj7dvYsNSeR0b3cTl4Mi-23" value="&lt;font color=&quot;#0066cc&quot; style=&quot;font-size: 14px;&quot;&gt;&lt;b&gt;La història de la branca &#39;paella&#39; canvia&lt;/b&gt;&lt;/font&gt;" style="text;html=1;strokeColor=none;fillColor=none;align=center;verticalAlign=middle;whiteSpace=wrap;rounded=0;fontStyle=2" parent="fIYOGUx-Yhvfgm9_j7Pw-4" vertex="1">
          <mxGeometry x="490" y="295" width="100" height="30" as="geometry" />
        </mxCell>
        <mxCell id="fIYOGUx-Yhvfgm9_j7Pw-1" style="edgeStyle=orthogonalEdgeStyle;rounded=0;orthogonalLoop=1;jettySize=auto;html=1;exitX=0.5;exitY=1;exitDx=0;exitDy=0;fillColor=#f5f5f5;strokeColor=#666666;opacity=50;dashed=1;" edge="1" parent="fIYOGUx-Yhvfgm9_j7Pw-4" source="fIYOGUx-Yhvfgm9_j7Pw-2">
          <mxGeometry relative="1" as="geometry">
            <mxPoint x="400" y="305" as="targetPoint" />
          </mxGeometry>
        </mxCell>
        <mxCell id="fIYOGUx-Yhvfgm9_j7Pw-2" value="HEAD" style="ellipse;whiteSpace=wrap;html=1;fillColor=#f5f5f5;strokeColor=#666666;fontSize=16;fontStyle=1;fontColor=#333333;opacity=50;dashed=1;textOpacity=50;" vertex="1" parent="fIYOGUx-Yhvfgm9_j7Pw-4">
          <mxGeometry x="350" y="235" width="100" height="40" as="geometry" />
        </mxCell>
        <mxCell id="fIYOGUx-Yhvfgm9_j7Pw-3" value="git rebase main paella" style="text;html=1;align=center;verticalAlign=middle;whiteSpace=wrap;rounded=0;fontStyle=1;fontSize=20;fontColor=#97D077;" vertex="1" parent="fIYOGUx-Yhvfgm9_j7Pw-4">
          <mxGeometry x="215" y="10" width="240" height="30" as="geometry" />
        </mxCell>
      </root>
    </mxGraphModel>
  </diagram>
</mxfile>
